<?xml version="1.0" encoding="utf-8"?>
<!-- Generator: Adobe Illustrator 22.1.0, SVG Export Plug-In . SVG Version: 6.00 Build 0)  -->
<svg version="1.1" id="syncta" xmlns="http://www.w3.org/2000/svg" xmlns:xlink="http://www.w3.org/1999/xlink" x="0px" y="0px"
   viewBox="0 0 486 153" style="enable-background:new 0 0 486 153;" xml:space="preserve">
<style type="text/css">
  .st0{fill:#005EB8;}
</style>
<g id="syncta_2_">
  <g>
    <path d="M465.8,45.5c-0.5-0.4-1.1-0.5-1.9-0.5c-0.3,0-0.6,0-0.9,0.1c-0.3,0.1-0.6,0.2-0.8,0.3c-0.2,0.1-0.4,0.3-0.6,0.6
      c-0.1,0.2-0.2,0.5-0.2,0.9c0,0.3,0.1,0.6,0.3,0.8s0.5,0.4,0.8,0.5c0.3,0.1,0.7,0.2,1.1,0.3c0.4,0.1,0.9,0.2,1.3,0.3
      c0.4,0.1,0.9,0.2,1.3,0.4c0.4,0.1,0.8,0.3,1.1,0.6s0.6,0.5,0.8,0.9c0.2,0.4,0.3,0.8,0.3,1.4c0,0.6-0.1,1.1-0.4,1.5
      c-0.3,0.4-0.6,0.8-1,1c-0.4,0.3-0.9,0.5-1.4,0.6c-0.5,0.1-1,0.2-1.5,0.2c-0.6,0-1.2-0.1-1.8-0.2c-0.6-0.2-1-0.4-1.5-0.7
      c-0.4-0.3-0.8-0.7-1-1.2c-0.2-0.5-0.4-1.1-0.4-1.8h1.4c0,0.5,0.1,0.9,0.3,1.2c0.2,0.3,0.4,0.6,0.7,0.8c0.3,0.2,0.6,0.4,1,0.5
      c0.4,0.1,0.8,0.2,1.2,0.2c0.3,0,0.7,0,1-0.1c0.3-0.1,0.6-0.2,0.9-0.3c0.3-0.2,0.5-0.4,0.7-0.6c0.2-0.3,0.2-0.6,0.2-1
      c0-0.4-0.1-0.7-0.3-0.9c-0.2-0.2-0.5-0.4-0.8-0.6c-0.3-0.2-0.7-0.3-1.1-0.4c-0.4-0.1-0.9-0.2-1.3-0.3c-0.4-0.1-0.9-0.2-1.3-0.3
      c-0.4-0.1-0.8-0.3-1.1-0.5c-0.3-0.2-0.6-0.5-0.8-0.8c-0.2-0.3-0.3-0.8-0.3-1.3c0-0.6,0.1-1,0.3-1.5c0.2-0.4,0.5-0.7,0.9-1
      c0.4-0.3,0.8-0.5,1.3-0.6c0.5-0.1,1-0.2,1.5-0.2c0.6,0,1.1,0.1,1.6,0.2c0.5,0.1,0.9,0.3,1.3,0.6c0.4,0.3,0.7,0.7,0.9,1.1
      c0.2,0.4,0.3,1,0.3,1.6h-1.4C466.6,46.4,466.3,45.8,465.8,45.5z"/>
    <path d="M472.3,44l3.5,9.3l3.5-9.3h2v11.1H480v-9.2h0l-3.5,9.2h-1.3l-3.5-9.2h0v9.2h-1.4V44H472.3z"/>
  </g>
  <path d="M452.6,94.7c0,1.7,0.2,2.9,0.7,3.6c0.4,0.7,1.3,1.1,2.6,1.1c0.4,0,0.9,0,1.4,0c0.6,0,1.2-0.1,1.9-0.2v9.5
    c-0.5,0.2-1.1,0.3-1.9,0.5c-0.8,0.2-1.5,0.4-2.4,0.5c-0.8,0.2-1.6,0.3-2.4,0.4c-0.8,0.1-1.5,0.1-2.1,0.1c-2.8,0-5.1-0.6-7-1.7
    s-3.1-3.1-3.6-5.9c-2.7,2.7-6.1,4.6-10.1,5.8c-4,1.2-7.8,1.8-11.5,1.8c-2.8,0-5.5-0.4-8.1-1.1c-2.6-0.8-4.8-1.9-6.8-3.4
    c-2-1.5-3.5-3.4-4.7-5.7c-1.2-2.3-1.7-5-1.7-8c0-3.9,0.7-7,2.1-9.4c1.4-2.4,3.3-4.3,5.5-5.7c2.3-1.4,4.9-2.4,7.7-3
    c2.9-0.6,5.7-1.1,8.6-1.4c2.5-0.5,4.9-0.8,7.1-1c2.3-0.2,4.2-0.5,6-1c1.7-0.5,3.1-1.2,4.1-2.2c1-1,1.5-2.5,1.5-4.5
    c0-1.8-0.4-3.2-1.3-4.3c-0.8-1.1-1.9-2-3.1-2.6c-1.2-0.6-2.6-1-4.2-1.2c-1.5-0.2-3-0.3-4.3-0.3c-3.9,0-7,0.8-9.5,2.4
    c-2.5,1.6-3.9,4.1-4.2,7.5h-13.8c0.2-4,1.2-7.4,2.9-10c1.7-2.7,3.8-4.8,6.5-6.4c2.6-1.6,5.6-2.7,8.9-3.4c3.3-0.6,6.7-1,10.1-1
    c3.1,0,6.1,0.3,9,1c3,0.6,5.6,1.7,8,3.1c2.4,1.4,4.3,3.3,5.7,5.6c1.4,2.3,2.2,5.1,2.2,8.4V94.7z M438.9,77.3
    c-2.1,1.4-4.7,2.2-7.7,2.5c-3.1,0.3-6.1,0.7-9.2,1.3c-1.4,0.2-2.9,0.6-4.2,1c-1.4,0.4-2.6,1-3.6,1.8c-1,0.8-1.9,1.8-2.5,3
    c-0.6,1.2-0.9,2.8-0.9,4.5c0,1.5,0.4,2.8,1.3,3.9c0.9,1,1.9,1.9,3.2,2.5c1.2,0.6,2.6,1,4.1,1.3c1.5,0.2,2.8,0.4,4,0.4
    c1.5,0,3.2-0.2,4.9-0.6c1.8-0.4,3.4-1.1,5-2.1c1.6-1,2.9-2.2,3.9-3.7c1-1.5,1.6-3.3,1.6-5.5V77.3z"/>
  <path d="M355,46.2h10.4V27.5h13.8v18.7h12.4v10.3h-12.4v33.3c0,1.4,0.1,2.7,0.2,3.7c0.1,1,0.4,1.9,0.8,2.7c0.4,0.7,1.1,1.3,2,1.6
    c0.9,0.4,2.1,0.5,3.6,0.5c1,0,1.9,0,2.9-0.1c1,0,1.9-0.2,2.9-0.4v10.6c-1.5,0.2-3,0.3-4.5,0.5c-1.4,0.2-2.9,0.2-4.5,0.2
    c-3.6,0-6.5-0.3-8.7-1c-2.2-0.7-3.9-1.7-5.2-3c-1.2-1.3-2.1-3-2.5-5c-0.4-2-0.7-4.3-0.8-6.9V56.4H355V46.2z"/>
  <path d="M338.7,67c-0.6-3.9-2.1-6.8-4.6-8.7c-2.5-2-5.7-3-9.6-3c-1.8,0-3.7,0.3-5.7,0.9c-2,0.6-3.9,1.7-5.5,3.4
    c-1.7,1.6-3.1,3.9-4.2,6.9c-1.1,2.9-1.7,6.8-1.7,11.5c0,2.6,0.3,5.1,0.9,7.7c0.6,2.6,1.6,4.9,2.9,6.9c1.3,2,3,3.6,5.1,4.9
    c2.1,1.2,4.6,1.9,7.6,1.9c4,0,7.3-1.2,10-3.7c2.6-2.5,4.2-6,4.9-10.5h13.7c-1.3,8.1-4.4,14.3-9.2,18.6c-4.9,4.3-11.3,6.5-19.4,6.5
    c-4.9,0-9.2-0.8-13-2.5c-3.7-1.6-6.9-3.9-9.5-6.8c-2.6-2.9-4.5-6.3-5.8-10.2c-1.3-3.9-2-8.2-2-12.8c0-4.7,0.6-9,1.9-13.1
    c1.3-4.1,3.2-7.7,5.8-10.7c2.6-3,5.8-5.4,9.6-7.1c3.8-1.7,8.3-2.6,13.4-2.6c3.6,0,7.1,0.5,10.3,1.4c3.3,0.9,6.2,2.3,8.7,4.2
    c2.5,1.9,4.6,4.2,6.2,7c1.6,2.8,2.6,6.2,2.9,10H338.7z"/>
  <path d="M232.2,46.2h13v9.2l0.2,0.2c2.1-3.5,4.8-6.2,8.2-8.1c3.4-2,7.1-3,11.2-3c6.8,0,12.2,1.8,16.2,5.3c3.9,3.5,5.9,8.8,5.9,15.9
    v42.8h-13.8V69.3c-0.2-4.9-1.2-8.5-3.1-10.7c-1.9-2.2-4.9-3.3-9-3.3c-2.3,0-4.4,0.4-6.3,1.3c-1.9,0.8-3.4,2-4.7,3.5
    c-1.3,1.5-2.3,3.2-3,5.2c-0.7,2-1.1,4.1-1.1,6.4v36.8h-13.8V46.2z"/>
  <path d="M165,46.2h15.1l16.3,46.6h0.2l15.8-46.6h14.4l-24.2,65.7c-1.1,2.8-2.2,5.5-3.3,8.1c-1.1,2.6-2.4,4.8-4,6.8
    c-1.6,2-3.5,3.5-5.8,4.7c-2.3,1.2-5.3,1.7-8.9,1.7c-3.2,0-6.4-0.2-9.5-0.7v-11.6c1.1,0.2,2.2,0.3,3.3,0.5c1,0.2,2.1,0.3,3.3,0.3
    c1.6,0,2.9-0.2,4-0.6c1-0.4,1.9-1,2.6-1.7c0.7-0.8,1.3-1.7,1.7-2.7c0.5-1,0.9-2.3,1.3-3.6l1.6-4.8L165,46.2z"/>
  <path d="M124.5,88.5c0.4,4,1.9,6.8,4.6,8.4c2.7,1.6,5.8,2.4,9.5,2.4c1.3,0,2.8-0.1,4.4-0.3c1.6-0.2,3.2-0.6,4.6-1.1
    c1.4-0.6,2.6-1.4,3.6-2.5c0.9-1.1,1.3-2.5,1.3-4.3c-0.1-1.8-0.7-3.2-1.9-4.3c-1.2-1.1-2.8-2-4.6-2.7c-1.9-0.7-4-1.3-6.5-1.7
    s-4.9-1-7.4-1.6c-2.6-0.6-5-1.2-7.4-2.1c-2.4-0.8-4.5-1.9-6.4-3.3c-1.9-1.4-3.4-3.1-4.5-5.2c-1.1-2.1-1.7-4.8-1.7-7.9
    c0-3.4,0.8-6.2,2.5-8.5c1.6-2.3,3.7-4.1,6.3-5.5c2.5-1.4,5.3-2.4,8.4-3c3.1-0.6,6-0.8,8.9-0.8c3.2,0,6.3,0.3,9.2,1
    c2.9,0.7,5.6,1.8,8,3.3c2.4,1.5,4.3,3.5,5.9,6c1.6,2.5,2.6,5.4,3,8.9h-14.4c-0.6-3.3-2.2-5.5-4.5-6.6c-2.4-1.1-5.1-1.7-8.1-1.7
    c-1,0-2.1,0.1-3.4,0.2c-1.3,0.2-2.6,0.5-3.7,0.9c-1.2,0.4-2.2,1.1-3,1.9c-0.8,0.8-1.2,2-1.2,3.3c0,1.7,0.6,3.1,1.7,4.1
    c1.2,1,2.7,1.9,4.6,2.6c1.9,0.7,4,1.3,6.5,1.7s4.9,1,7.5,1.6c2.5,0.6,4.9,1.2,7.4,2.1c2.4,0.8,4.6,1.9,6.5,3.3
    c1.9,1.4,3.4,3.1,4.6,5.2c1.2,2.1,1.7,4.7,1.7,7.7c0,3.7-0.8,6.8-2.5,9.4c-1.7,2.6-3.9,4.7-6.6,6.3c-2.7,1.6-5.7,2.8-9,3.5
    c-3.3,0.7-6.6,1.1-9.8,1.1c-3.9,0-7.6-0.4-10.9-1.3c-3.3-0.9-6.2-2.2-8.7-4c-2.5-1.8-4.4-4.1-5.8-6.8c-1.4-2.7-2.2-5.9-2.2-9.6
    H124.5z"/>
</g>
<g id="bug_3_">
  <polygon points="51.4,96.5 5.1,96.5 42.2,56.4 88.6,56.4   "/>
  <polygon class="st0" points="88.6,56.4 29.7,120.1 55.9,148.5 88.5,113.2   "/>
  <polygon class="st0" points="5.1,96.5 64,32.8 37.8,4.4 5.2,39.8   "/>
</g>
</svg>
